HIERARCHY
ROOT Hips
{
  OFFSET 57.8838 95.319 338.509
  CHANNELS 6 Xposition Yposition Zposition Zrotation Xrotation Yrotation
  JOINT LeftUpLeg
  {
    OFFSET 8.64259 1.95398 -2.38835
    CHANNELS 3 Zrotation Xrotation Yrotation
    JOINT LeftLeg
    {
      OFFSET 43.7702 0 0
      CHANNELS 3 Zrotation Xrotation Yrotation
      JOINT LeftFoot
      {
        OFFSET 40.6238 0 0
        CHANNELS 3 Zrotation Xrotation Yrotation
        JOINT LeftToeBase
        {
          OFFSET 12.7242 0 0
          CHANNELS 3 Zrotation Xrotation Yrotation
          End Site
          {
            OFFSET 0 0 0
          }
        }
      }
    }
  }
  JOINT RightUpLeg
  {
    OFFSET -8.2249 1.95398 -2.59336
    CHANNELS 3 Zrotation Xrotation Yrotation
    JOINT RightLeg
    {
      OFFSET 43.5653 0 0
      CHANNELS 3 Zrotation Xrotation Yrotation
      JOINT RightFoot
      {
        OFFSET 40.6238 0 0
        CHANNELS 3 Zrotation Xrotation Yrotation
        JOINT RightToeBase
        {
          OFFSET 12.7242 0 0
          CHANNELS 3 Zrotation Xrotation Yrotation
          End Site
          {
            OFFSET 0 0 0
          }
        }
      }
    }
  }
  JOINT Spine
  {
    OFFSET 0.165834 0.87714 6.61349
    CHANNELS 3 Zrotation Xrotation Yrotation
    JOINT Spine1
    {
      OFFSET 7.38963 1.71661e-005 0
      CHANNELS 3 Zrotation Xrotation Yrotation
      JOINT Spine2
      {
        OFFSET 11.9445 1.14441e-005 0
        CHANNELS 3 Zrotation Xrotation Yrotation
        JOINT Spine3
        {
          OFFSET 14.7254 4.19617e-005 0
          CHANNELS 3 Zrotation Xrotation Yrotation
          JOINT Spine4
          {
            OFFSET 10.9679 0 0
            CHANNELS 3 Zrotation Xrotation Yrotation
            JOINT RightShoulder
            {
              OFFSET 2.46616 -1.6653 3.69651
              CHANNELS 3 Zrotation Xrotation Yrotation
              JOINT RightArm
              {
                OFFSET 13.0012 0 0
                CHANNELS 3 Zrotation Xrotation Yrotation
                JOINT RightForeArm
                {
                  OFFSET 28.7848 1.62311e-005 0
                  CHANNELS 3 Zrotation Xrotation Yrotation
                  JOINT RightHand
                  {
                    OFFSET 26.5688 1.62095e-005 0
                    CHANNELS 3 Zrotation Xrotation Yrotation
                    End Site
                    {
                      OFFSET 0 0 0
                    }
                  }
                }
              }
            }
            JOINT LeftShoulder
            {
              OFFSET 2.38034 -1.29275 -3.7523
              CHANNELS 3 Zrotation Xrotation Yrotation
              JOINT LeftArm
              {
                OFFSET 16.3182 6.07031e-005 0
                CHANNELS 3 Zrotation Xrotation Yrotation
                JOINT LeftForeArm
                {
                  OFFSET 27.0901 0 0
                  CHANNELS 3 Zrotation Xrotation Yrotation
                  JOINT LeftHand
                  {
                    OFFSET 24.5451 1.51738e-005 0
                    CHANNELS 3 Zrotation Xrotation Yrotation
                    End Site
                    {
                      OFFSET 0 0 0
                    }
                  }
                }
              }
            }
            JOINT Neck
            {
              OFFSET 5.0226 -0.0266342 0
              CHANNELS 3 Zrotation Xrotation Yrotation
              JOINT Head
              {
                OFFSET 6.69364 2.86102e-005 0
                CHANNELS 3 Zrotation Xrotation Yrotation
                End Site
                {
                  OFFSET 0 0 0
                }
              }
            }
          }
        }
      }
    }
  }
}
MOTION
Frames:	7
Frame Time:	0.0416667
13.3774 79.4546 21.0255 -126.17 57.0329 -70.7335 -178.485 27.7137 94.5761 -69.7071 15.69 4.94732 55.1775 -2.68712 5.17263 55.7256 14.2658 14.6564 174.299 33.3671 99.8371 -73.429 -8.52175 -1.72455 67.2475 -8.2862 -2.69229 27.2043 1.89587 2.96977 -1.1107 10.232 -89.3032 6.4242 -1.92359 1.44591 -5.24614 -1.85809 1.52917 -27.7908 -2.26918 0.800782 -7.77813 -2.26918 0.800784 97.7549 -47.6238 -89.0637 20.365 -16.3565 -4.74985 0.610757 -1.73765 -23.9143 -7.30493 -0.17212 -2.59093 -85.0533 -54.1251 86.6793 -8.39722 -21.8456 -31.0135 0.686174 39.8231 -12.042 8.98755 -1.08613 -14.313 5.09869 -15.6687 10.177 -2.18083 -17.1899 -15.0738 
7.53842 79.8999 11.179 -118.204 60.4548 -77.8097 179.738 28.8254 94.5743 -51.7326 20.9892 3.59957 56.8703 -3.59152 0.616317 58.1559 15.5103 14.0665 171.736 34.7254 99.0513 -79.751 -14.662 -0.710996 62.308 -5.52968 -8.70141 34.1697 -7.20398 -0.396425 -0.97407 10.0059 -89.4201 6.88256 -1.6974 1.21917 -4.78774 -1.64208 1.29269 -27.3316 -1.98536 0.652538 -7.31894 -1.98535 0.652541 97.9305 -48.8056 -88.6818 23.1648 -20.0327 -5.54132 -3.07958 -9.75273 -24.4233 -9.25736 -0.282712 -1.78922 -85.2202 -53.0128 86.297 -7.05736 -17.485 -28.2718 0.43711 30.2318 -19.8634 11.0591 -1.20184 -13.7328 8.36986 -15.8385 9.67065 -2.05347 -17.4667 -15.2812 
1.85537 79.5573 1.81171 -127.048 68.477 -71.6224 -176.406 19.8161 92.5596 -52.7876 20.167 2.7511 59.7476 1.58008 7.51327 61.1352 16.4209 11.5204 174.66 38.5652 94.6246 -91.8062 -13.8162 -2.54303 60.3466 3.77742 3.23296 23.4113 8.32986 -6.62916 -0.800795 10.4065 -88.9986 6.06546 -1.17811 2.00393 -5.60656 -1.08877 2.0538 -28.1378 -1.72584 1.55734 -8.12513 -1.72582 1.55734 98.6442 -51.4907 -87.3655 25.7413 -17.9232 -5.46799 -2.49401 -2.01169 -32.6096 -7.6162 -0.144231 -3.41521 -85.45 -53.554 86.0339 -7.33586 -17.3137 -32.8235 1.24454 26.351 -23.6095 10.5536 -1.11148 -13.3623 10.9775 -14.0172 6.41328 -0.705203 -15.2414 -12.0675 
-2.33059 78.7513 -7.01888 -114.824 71.7577 -84.9883 -175.709 16.7806 89.6484 -53.141 17.2952 2.42993 64.0327 8.85758 10.0314 63.9461 18.9237 14.5005 170.051 49.7847 94.3116 -90.8984 -11.5977 -2.02753 64.8018 -5.89247 -1.95687 36.6974 -11.7359 -7.46115 -1.312 10.123 -89.0554 6.64294 -2.21821 1.94504 -5.02772 -2.13048 2.04077 -27.5728 -2.70015 1.18827 -7.56017 -2.70015 1.18828 97.5231 -53.2289 -88.9219 28.7659 -14.229 -3.56612 -3.77894 -0.331848 -38.2926 -0.446997 -0.0264623 -4.37707 -85.8867 -53.8856 85.4467 -9.73384 -14.4099 -43.6586 7.65393 26.0706 -35.4025 10.4462 -1.28029 -14.9319 16.7179 -12.2075 6.53428 -0.934079 -13.7206 -11.2613 
-4.25286 81.6365 -19.3381 -106.201 77.5981 -91.5502 -174.541 4.63755 91.7086 -42.0115 17.2763 2.76269 62.7491 6.02157 6.35624 64.8448 20.6009 17.9023 160.27 46.596 99.408 -75.8382 -7.87067 1.54519 64.8839 -7.80659 -4.36019 39.7938 -15.9696 -5.96775 -1.04711 9.83561 -89.778 7.20651 -1.99559 0.530423 -4.46307 -1.97032 0.617762 -27.0103 -2.06269 -0.0941076 -6.99761 -2.06269 -0.0941129 94.47 -50.0214 -93.9294 33.2114 -10.997 -2.23885 2.70081 5.16639 -32.9038 -5.91639 -0.0648461 -4.26268 -86.1844 -49.9767 84.4517 -13.5004 -9.63577 -41.8972 13.4204 27.1441 -43.894 13.1352 -1.58754 -15.345 19.5556 -10.5578 10.1468 -2.38044 -13.2401 -10.4376 
-4.22603 82.7844 -33.8774 -58.4644 86.419 -137.944 -178.547 6.50486 91.082 -58.2637 14.9266 5.34571 55.3733 -4.12456 1.25239 58.6632 16.7836 16.9097 161.147 35.4144 100.621 -68.4092 -9.49921 3.99719 65.1902 -9.70016 -6.85412 37.0308 -11.2299 -1.66981 -0.320261 9.61628 -90.248 7.63779 -0.747289 -0.449668 -4.03307 -0.766355 -0.41635 -26.5686 -0.577615 -0.653473 -6.55591 -0.57761 -0.653478 92.8075 -52.663 -96.0455 24.8323 -5.68432 -9.64973 8.51309 13.1778 -29.8874 -9.74925 -0.146933 -3.66528 -84.8022 -50.7763 86.6357 -14.6437 -14.949 -27.4258 14.0068 37.4374 -33.8574 11.5636 -1.34795 -14.4302 25.4974 -9.22372 2.97283 -7.8684 -9.77194 -2.12415 
-3.56703 82.0435 -46.2676 63.9045 77.8102 105.258 -176.476 24.5187 88.2144 -92.4349 12.1249 5.69768 55.789 1.13076 14.8105 49.5691 10.8892 15.6559 168.945 25.1113 103.959 -68.5555 -13.0607 2.13959 68.4557 -10.8432 -4.23915 39.9503 -14.9998 -0.929343 0.635407 10.2897 -90.836 6.30033 0.916488 -1.68308 -5.37142 0.841534 -1.72176 -27.9029 1.37988 -1.32992 -7.89025 1.37989 -1.32992 93.5079 -52.8105 -94.9729 19.9039 1.5488 -29.4941 7.15147 6.64866 -41.4138 -13.5157 -0.287085 -2.75867 -83.934 -48.8411 87.7185 -9.24196 -28.4141 -5.54087 1.15302 53.373 -4.94271 14.3875 -1.01969 -11.026 32.8233 -6.55057 -3.85911 -10.1747 -4.94508 5.12323 
